<svg width="1000" height="150" viewBox="0 0 1000 150" fill="none" xmlns="http://www.w3.org/2000/svg">
<g clip-path="url(#clip0_67_287)">
<path d="M1000 0H0V150H1000V0Z" fill="white"/>
<path d="M50 0H0V50H50V0Z" fill="#E8E826"/>
<path d="M25 12.5L12.5 0L0 12.5L12.5 25L0 37.5L12.5 50L25 37.5L37.5 50L50 37.5L37.5 25L50 12.5L37.5 0L25 12.5Z" fill="#E8E826"/>
<path d="M100 0H50V50H100V0Z" fill="#1F1C00"/>
<path d="M75 12.5L62.5 0L50 12.5L62.5 25L50 37.5L62.5 50L75 37.5L87.5 50L100 37.5L87.5 25L100 12.5L87.5 0L75 12.5Z" fill="#E8E826"/>
<path d="M150 0H100V50H150V0Z" fill="#1F1C00"/>
<path d="M125 0H150L100 50V25L125 0Z" fill="#1F1C00"/>
<path d="M150 25V50H125L150 25Z" fill="#1F1C00"/>
<path d="M200 0H150V50H200V0Z" fill="#E8E826"/>
<path d="M175 12.5L162.5 0L150 12.5L162.5 25L150 37.5L162.5 50L175 37.5L187.5 50L200 37.5L187.5 25L200 12.5L187.5 0L175 12.5Z" fill="#1F1C00"/>
<path d="M250 0H200V50H250V0Z" fill="#E8E826"/>
<path d="M225 12.5L212.5 0L200 12.5L212.5 25L200 37.5L212.5 50L225 37.5L237.5 50L250 37.5L237.5 25L250 12.5L237.5 0L225 12.5Z" fill="#E8E826"/>
<path d="M300 0H250V50H300V0Z" fill="#1F1C00"/>
<path d="M275 0H300L250 50V25L275 0Z" fill="#E8E826"/>
<path d="M300 25V50H275L300 25Z" fill="#E8E826"/>
<path d="M350 0H300V50H350V0Z" fill="#E8E826"/>
<path d="M325 12.5L312.5 0L300 12.5L312.5 25L300 37.5L312.5 50L325 37.5L337.5 50L350 37.5L337.5 25L350 12.5L337.5 0L325 12.5Z" fill="#1F1C00"/>
<path d="M400 0H350V50H400V0Z" fill="#E8E826"/>
<path d="M375 0H400L350 50V25L375 0Z" fill="#1F1C00"/>
<path d="M400 25V50H375L400 25Z" fill="#1F1C00"/>
<path d="M450 0H400V50H450V0Z" fill="#1F1C00"/>
<path d="M425 0H450L400 50V25L425 0Z" fill="#1F1C00"/>
<path d="M450 25V50H425L450 25Z" fill="#1F1C00"/>
<path d="M500 0H450V50H500V0Z" fill="#1F1C00"/>
<path d="M475 12.5L462.5 0L450 12.5L462.5 25L450 37.5L462.5 50L475 37.5L487.5 50L500 37.5L487.5 25L500 12.5L487.5 0L475 12.5Z" fill="#E8E826"/>
<path d="M550 0H500V50H550V0Z" fill="#E8E826"/>
<path d="M525 12.5L512.5 0L500 12.5L512.5 25L500 37.5L512.5 50L525 37.5L537.5 50L550 37.5L537.5 25L550 12.5L537.5 0L525 12.5Z" fill="#E8E826"/>
<path d="M600 0H550V50H600V0Z" fill="#E8E826"/>
<path d="M575 12.5L562.5 0L550 12.5L562.5 25L550 37.5L562.5 50L575 37.5L587.5 50L600 37.5L587.5 25L600 12.5L587.5 0L575 12.5Z" fill="#E8E826"/>
<path d="M650 0H600V50H650V0Z" fill="#E8E826"/>
<path d="M625 12.5L612.5 0L600 12.5L612.5 25L600 37.5L612.5 50L625 37.5L637.5 50L650 37.5L637.5 25L650 12.5L637.5 0L625 12.5Z" fill="#E8E826"/>
<path d="M700 0H650V50H700V0Z" fill="#1F1C00"/>
<path d="M675 0H700L650 50V25L675 0Z" fill="#1F1C00"/>
<path d="M700 25V50H675L700 25Z" fill="#1F1C00"/>
<path d="M750 0H700V50H750V0Z" fill="#1F1C00"/>
<path d="M725 12.5L712.5 0L700 12.5L712.5 25L700 37.5L712.5 50L725 37.5L737.5 50L750 37.5L737.5 25L750 12.5L737.5 0L725 12.5Z" fill="#1F1C00"/>
<path d="M800 0H750V50H800V0Z" fill="#1F1C00"/>
<path d="M775 0H800L750 50V25L775 0Z" fill="#1F1C00"/>
<path d="M800 25V50H775L800 25Z" fill="#1F1C00"/>
<path d="M850 0H800V50H850V0Z" fill="#1F1C00"/>
<path d="M825 12.5L812.5 0L800 12.5L812.5 25L800 37.5L812.5 50L825 37.5L837.5 50L850 37.5L837.5 25L850 12.5L837.5 0L825 12.5Z" fill="#E8E826"/>
<path d="M900 0H850V50H900V0Z" fill="#1F1C00"/>
<path d="M875 0H900L850 50V25L875 0Z" fill="#E8E826"/>
<path d="M900 25V50H875L900 25Z" fill="#E8E826"/>
<path d="M950 0H900V50H950V0Z" fill="#E8E826"/>
<path d="M925 12.5L912.5 0L900 12.5L912.5 25L900 37.5L912.5 50L925 37.5L937.5 50L950 37.5L937.5 25L950 12.5L937.5 0L925 12.5Z" fill="#E8E826"/>
<path d="M1000 0H950V50H1000V0Z" fill="#1F1C00"/>
<path d="M975 12.5L962.5 0L950 12.5L962.5 25L950 37.5L962.5 50L975 37.5L987.5 50L1000 37.5L987.5 25L1000 12.5L987.5 0L975 12.5Z" fill="#1F1C00"/>
<path d="M50 50H0V100H50V50Z" fill="#1F1C00"/>
<path d="M25 62.5L12.5 50L0 62.5L12.5 75L0 87.5L12.5 100L25 87.5L37.5 100L50 87.5L37.5 75L50 62.5L37.5 50L25 62.5Z" fill="#E8E826"/>
<path d="M100 50H50V100H100V50Z" fill="#E8E826"/>
<path d="M75 50H100L50 100V75L75 50Z" fill="#E8E826"/>
<path d="M100 75V100H75L100 75Z" fill="#E8E826"/>
<path d="M150 50H100V100H150V50Z" fill="#E8E826"/>
<path d="M125 62.5L112.5 50L100 62.5L112.5 75L100 87.5L112.5 100L125 87.5L137.5 100L150 87.5L137.5 75L150 62.5L137.5 50L125 62.5Z" fill="#1F1C00"/>
<path d="M200 50H150V100H200V50Z" fill="#E8E826"/>
<path d="M175 50H200L150 100V75L175 50Z" fill="#E8E826"/>
<path d="M200 75V100H175L200 75Z" fill="#E8E826"/>
<path d="M250 50H200V100H250V50Z" fill="#1F1C00"/>
<path d="M225 62.5L212.5 50L200 62.5L212.5 75L200 87.5L212.5 100L225 87.5L237.5 100L250 87.5L237.5 75L250 62.5L237.5 50L225 62.5Z" fill="#E8E826"/>
<path d="M300 50H250V100H300V50Z" fill="#1F1C00"/>
<path d="M275 62.5L262.5 50L250 62.5L262.5 75L250 87.5L262.5 100L275 87.5L287.5 100L300 87.5L287.5 75L300 62.5L287.5 50L275 62.5Z" fill="#E8E826"/>
<path d="M350 50H300V100H350V50Z" fill="#E8E826"/>
<path d="M325 50H350L300 100V75L325 50Z" fill="#E8E826"/>
<path d="M350 75V100H325L350 75Z" fill="#E8E826"/>
<path d="M400 50H350V100H400V50Z" fill="#E8E826"/>
<path d="M375 62.5L362.5 50L350 62.5L362.5 75L350 87.5L362.5 100L375 87.5L387.5 100L400 87.5L387.5 75L400 62.5L387.5 50L375 62.5Z" fill="#1F1C00"/>
<path d="M450 50H400V100H450V50Z" fill="#1F1C00"/>
<path d="M425 62.5L412.5 50L400 62.5L412.5 75L400 87.5L412.5 100L425 87.5L437.5 100L450 87.5L437.5 75L450 62.5L437.5 50L425 62.5Z" fill="#E8E826"/>
<path d="M500 50H450V100H500V50Z" fill="#1F1C00"/>
<path d="M475 62.5L462.5 50L450 62.5L462.5 75L450 87.5L462.5 100L475 87.5L487.5 100L500 87.5L487.5 75L500 62.5L487.5 50L475 62.5Z" fill="#1F1C00"/>
<path d="M550 50H500V100H550V50Z" fill="#1F1C00"/>
<path d="M525 50H550L500 100V75L525 50Z" fill="#E8E826"/>
<path d="M550 75V100H525L550 75Z" fill="#E8E826"/>
<path d="M600 50H550V100H600V50Z" fill="#E8E826"/>
<path d="M575 50H600L550 100V75L575 50Z" fill="#E8E826"/>
<path d="M600 75V100H575L600 75Z" fill="#E8E826"/>
<path d="M650 50H600V100H650V50Z" fill="#1F1C00"/>
<path d="M625 62.5L612.5 50L600 62.5L612.5 75L600 87.5L612.5 100L625 87.5L637.5 100L650 87.5L637.5 75L650 62.5L637.5 50L625 62.5Z" fill="#E8E826"/>
<path d="M700 50H650V100H700V50Z" fill="#1F1C00"/>
<path d="M675 62.5L662.5 50L650 62.5L662.5 75L650 87.5L662.5 100L675 87.5L687.5 100L700 87.5L687.5 75L700 62.5L687.5 50L675 62.5Z" fill="#E8E826"/>
<path d="M750 50H700V100H750V50Z" fill="#1F1C00"/>
<path d="M725 62.5L712.5 50L700 62.5L712.5 75L700 87.5L712.5 100L725 87.5L737.5 100L750 87.5L737.5 75L750 62.5L737.5 50L725 62.5Z" fill="#E8E826"/>
<path d="M800 50H750V100H800V50Z" fill="#1F1C00"/>
<path d="M775 50H800L750 100V75L775 50Z" fill="#E8E826"/>
<path d="M800 75V100H775L800 75Z" fill="#E8E826"/>
<path d="M850 50H800V100H850V50Z" fill="#E8E826"/>
<path d="M825 50H850L800 100V75L825 50Z" fill="#E8E826"/>
<path d="M850 75V100H825L850 75Z" fill="#E8E826"/>
<path d="M900 50H850V100H900V50Z" fill="#1F1C00"/>
<path d="M875 50H900L850 100V75L875 50Z" fill="#1F1C00"/>
<path d="M900 75V100H875L900 75Z" fill="#1F1C00"/>
<path d="M950 50H900V100H950V50Z" fill="#1F1C00"/>
<path d="M925 62.5L912.5 50L900 62.5L912.5 75L900 87.5L912.5 100L925 87.5L937.5 100L950 87.5L937.5 75L950 62.5L937.5 50L925 62.5Z" fill="#1F1C00"/>
<path d="M1000 50H950V100H1000V50Z" fill="#1F1C00"/>
<path d="M975 62.5L962.5 50L950 62.5L962.5 75L950 87.5L962.5 100L975 87.5L987.5 100L1000 87.5L987.5 75L1000 62.5L987.5 50L975 62.5Z" fill="#1F1C00"/>
<path d="M50 100H0V150H50V100Z" fill="#E8E826"/>
<path d="M25 100H50L0 150V125L25 100Z" fill="#E8E826"/>
<path d="M50 125V150H25L50 125Z" fill="#E8E826"/>
<path d="M100 100H50V150H100V100Z" fill="#E8E826"/>
<path d="M75 112.5L62.5 100L50 112.5L62.5 125L50 137.5L62.5 150L75 137.5L87.5 150L100 137.5L87.5 125L100 112.5L87.5 100L75 112.5Z" fill="#E8E826"/>
<path d="M150 100H100V150H150V100Z" fill="#E8E826"/>
<path d="M125 112.5L112.5 100L100 112.5L112.5 125L100 137.5L112.5 150L125 137.5L137.5 150L150 137.5L137.5 125L150 112.5L137.5 100L125 112.5Z" fill="#1F1C00"/>
<path d="M200 100H150V150H200V100Z" fill="#1F1C00"/>
<path d="M175 112.5L162.5 100L150 112.5L162.5 125L150 137.5L162.5 150L175 137.5L187.5 150L200 137.5L187.5 125L200 112.5L187.5 100L175 112.5Z" fill="#1F1C00"/>
<path d="M250 100H200V150H250V100Z" fill="#E8E826"/>
<path d="M225 100H250L200 150V125L225 100Z" fill="#E8E826"/>
<path d="M250 125V150H225L250 125Z" fill="#E8E826"/>
<path d="M300 100H250V150H300V100Z" fill="#1F1C00"/>
<path d="M275 112.5L262.5 100L250 112.5L262.5 125L250 137.5L262.5 150L275 137.5L287.5 150L300 137.5L287.5 125L300 112.5L287.5 100L275 112.5Z" fill="#E8E826"/>
<path d="M350 100H300V150H350V100Z" fill="#1F1C00"/>
<path d="M325 100H350L300 150V125L325 100Z" fill="#E8E826"/>
<path d="M350 125V150H325L350 125Z" fill="#E8E826"/>
<path d="M400 100H350V150H400V100Z" fill="#1F1C00"/>
<path d="M375 100H400L350 150V125L375 100Z" fill="#E8E826"/>
<path d="M400 125V150H375L400 125Z" fill="#E8E826"/>
<path d="M450 100H400V150H450V100Z" fill="#1F1C00"/>
<path d="M425 112.5L412.5 100L400 112.5L412.5 125L400 137.5L412.5 150L425 137.5L437.5 150L450 137.5L437.5 125L450 112.5L437.5 100L425 112.5Z" fill="#E8E826"/>
<path d="M500 100H450V150H500V100Z" fill="#E8E826"/>
<path d="M475 100H500L450 150V125L475 100Z" fill="#1F1C00"/>
<path d="M500 125V150H475L500 125Z" fill="#1F1C00"/>
<path d="M550 100H500V150H550V100Z" fill="#E8E826"/>
<path d="M525 100H550L500 150V125L525 100Z" fill="#1F1C00"/>
<path d="M550 125V150H525L550 125Z" fill="#1F1C00"/>
<path d="M600 100H550V150H600V100Z" fill="#E8E826"/>
<path d="M575 100H600L550 150V125L575 100Z" fill="#1F1C00"/>
<path d="M600 125V150H575L600 125Z" fill="#1F1C00"/>
<path d="M650 100H600V150H650V100Z" fill="#1F1C00"/>
<path d="M625 112.5L612.5 100L600 112.5L612.5 125L600 137.5L612.5 150L625 137.5L637.5 150L650 137.5L637.5 125L650 112.5L637.5 100L625 112.5Z" fill="#1F1C00"/>
<path d="M700 100H650V150H700V100Z" fill="#1F1C00"/>
<path d="M675 112.5L662.5 100L650 112.5L662.5 125L650 137.5L662.5 150L675 137.5L687.5 150L700 137.5L687.5 125L700 112.5L687.5 100L675 112.5Z" fill="#E8E826"/>
<path d="M750 100H700V150H750V100Z" fill="#E8E826"/>
<path d="M725 112.5L712.5 100L700 112.5L712.5 125L700 137.5L712.5 150L725 137.5L737.5 150L750 137.5L737.5 125L750 112.5L737.5 100L725 112.5Z" fill="#1F1C00"/>
<path d="M800 100H750V150H800V100Z" fill="#E8E826"/>
<path d="M775 112.5L762.5 100L750 112.5L762.5 125L750 137.5L762.5 150L775 137.5L787.5 150L800 137.5L787.5 125L800 112.5L787.5 100L775 112.5Z" fill="#E8E826"/>
<path d="M850 100H800V150H850V100Z" fill="#E8E826"/>
<path d="M825 112.5L812.5 100L800 112.5L812.5 125L800 137.5L812.5 150L825 137.5L837.5 150L850 137.5L837.5 125L850 112.5L837.5 100L825 112.5Z" fill="#E8E826"/>
<path d="M900 100H850V150H900V100Z" fill="#E8E826"/>
<path d="M875 100H900L850 150V125L875 100Z" fill="#E8E826"/>
<path d="M900 125V150H875L900 125Z" fill="#E8E826"/>
<path d="M950 100H900V150H950V100Z" fill="#1F1C00"/>
<path d="M925 112.5L912.5 100L900 112.5L912.5 125L900 137.5L912.5 150L925 137.5L937.5 150L950 137.5L937.5 125L950 112.5L937.5 100L925 112.5Z" fill="#1F1C00"/>
<path d="M1000 100H950V150H1000V100Z" fill="#E8E826"/>
<path d="M975 112.5L962.5 100L950 112.5L962.5 125L950 137.5L962.5 150L975 137.5L987.5 150L1000 137.5L987.5 125L1000 112.5L987.5 100L975 112.5Z" fill="#1F1C00"/>
</g>
<defs>
<clipPath id="clip0_67_287">
<rect width="1000" height="150" fill="white"/>
</clipPath>
</defs>
</svg>
